<svg width="584" height="520" viewBox="0 0 584 520" fill="none" xmlns="http://www.w3.org/2000/svg">
<g clip-path="url(#clip0_17993_1389)">
<path d="M0.178276 278.108C0.178276 278.108 3.35824 376.862 85.7928 442.69C168.227 508.517 282.489 513.232 374.98 519.497C467.471 525.762 538.504 473.388 549.212 394.243C559.921 315.098 489.323 291.874 450.905 201.762C412.487 111.651 415.939 82.0665 334.85 26.6624C253.76 -28.7418 126.793 5.27261 60.2579 100.208C-6.2768 195.144 0.178276 278.108 0.178276 278.108Z" fill="#60E5AE"/>
<path opacity="0.7" d="M0.178276 278.108C0.178276 278.108 3.35824 376.862 85.7928 442.69C168.227 508.517 282.489 513.232 374.98 519.497C467.471 525.762 538.504 473.388 549.212 394.243C559.921 315.098 489.323 291.874 450.905 201.762C412.487 111.651 415.939 82.0665 334.85 26.6624C253.76 -28.7418 126.793 5.27261 60.2579 100.208C-6.2768 195.144 0.178276 278.108 0.178276 278.108Z" fill="white"/>
<path d="M37.6804 437.58H25.2188" stroke="#263238" stroke-width="1.11" stroke-miterlimit="10"/>
<path d="M543.014 437.58H57.4297" stroke="#263238" stroke-width="1.11" stroke-miterlimit="10"/>
<path d="M360.314 489.736C383.123 489.736 401.613 484.65 401.613 478.376C401.613 472.101 383.123 467.015 360.314 467.015C337.506 467.015 319.016 472.101 319.016 478.376C319.016 484.65 337.506 489.736 360.314 489.736Z" fill="#263238"/>
<path d="M146.861 504.182C103.877 504.182 97.5308 497.972 96.9057 492.957C96.7637 491.913 96.8666 490.85 97.2063 489.852C97.5459 488.854 98.1129 487.949 98.8626 487.209C110.441 475.06 177.166 480.197 269.494 487.304C282.377 488.296 295.695 489.315 309.352 490.334C402.645 497.265 440.206 496.368 447.966 486.991C449.543 485.075 449.869 482.683 448.999 479.449C445.303 465.928 395.891 465.86 377.178 466.92C376.75 466.942 376.33 466.795 376.009 466.51C375.689 466.225 375.494 465.826 375.466 465.398C375.453 465.186 375.482 464.974 375.552 464.773C375.622 464.573 375.73 464.389 375.872 464.231C376.013 464.073 376.185 463.944 376.376 463.853C376.568 463.762 376.776 463.709 376.988 463.699C384.149 463.278 447.069 460.111 452.111 478.647C453.266 482.914 452.736 486.325 450.453 489.098C441.742 499.67 406.083 500.798 309.121 493.596C295.45 492.577 282.132 491.557 269.249 490.565C181.243 483.771 111.718 478.43 101.2 489.478C100.784 489.873 100.469 490.361 100.279 490.902C100.09 491.444 100.033 492.022 100.113 492.59C100.507 495.797 108.267 502.959 170.779 500.472C205.745 499.113 240.874 495.267 241.227 495.227C241.637 495.21 242.037 495.349 242.347 495.616C242.658 495.883 242.855 496.258 242.9 496.665C242.945 497.072 242.834 497.481 242.589 497.809C242.344 498.138 241.984 498.361 241.581 498.434C241.227 498.434 205.989 502.293 170.915 503.693C161.891 504.019 153.901 504.182 146.861 504.182Z" fill="white" stroke="#263238" stroke-width="1.11" stroke-miterlimit="10"/>
<path d="M355.983 487.07C382.162 480.988 398.454 454.835 392.372 428.656C386.289 402.477 360.136 386.185 333.956 392.268C307.777 398.35 291.486 424.503 297.568 450.682C303.65 476.861 329.804 493.153 355.983 487.07Z" fill="white"/>
<mask id="mask0_17993_1389" style="mask-type:luminance" maskUnits="userSpaceOnUse" x="296" y="390" width="98" height="99">
<path d="M355.983 487.07C382.162 480.988 398.454 454.835 392.372 428.656C386.289 402.477 360.136 386.185 333.956 392.268C307.777 398.35 291.486 424.503 297.568 450.682C303.65 476.861 329.804 493.153 355.983 487.07Z" fill="white"/>
</mask>
<g mask="url(#mask0_17993_1389)">
<path d="M344.957 488.35C353.813 488.356 362.503 485.944 370.089 481.375C377.675 476.806 383.871 470.253 388.007 462.423C392.143 454.592 394.064 445.781 393.561 436.939C393.059 428.098 390.152 419.561 385.155 412.25C384.625 433.449 372.925 464.746 312.07 475.508C321.029 483.771 332.77 488.356 344.957 488.35Z" fill="#60E5AE"/>
<path opacity="0.3" d="M344.957 488.35C353.813 488.356 362.503 485.944 370.089 481.375C377.675 476.806 383.871 470.253 388.007 462.423C392.143 454.592 394.064 445.781 393.561 436.939C393.059 428.098 390.152 419.561 385.155 412.25C384.625 433.449 372.925 464.746 312.07 475.508C321.029 483.771 332.77 488.356 344.957 488.35Z" fill="white"/>
<path d="M368.901 458.766C360.223 450.324 349.685 444.035 338.135 440.407M368.901 458.766H371.483C377.211 453.088 382.143 446.661 386.147 439.659C363.357 415.579 341.192 418.039 341.192 418.039C341.192 418.039 363.425 415.579 386.215 439.686C387.465 437.444 388.511 435.338 389.367 433.395C379.882 420.104 363.547 411.04 354.782 409.681L352.743 409.192M368.901 458.766C348.884 458.481 333.664 455.382 322.289 451.238C323.023 420.498 333.99 400.019 339.725 391.349C341.552 391.137 343.389 391.028 345.228 391.023C346.9 391.023 348.531 391.118 350.161 391.267M352.743 409.192C349.602 408.621 346.387 408.575 343.231 409.056M352.743 409.192L358.546 392.884C355.804 392.101 352.998 391.56 350.161 391.267M350.161 391.267C346.397 397.342 336.708 416.748 336.708 455.246M379.895 448.859C360.517 429.97 339.127 428.978 339.127 428.978" stroke="#263238" stroke-width="1.11" stroke-linecap="round" stroke-linejoin="round"/>
<path d="M322.235 451.319C322.969 420.58 333.936 400.1 339.671 391.43C335.184 391.934 330.788 393.059 326.611 394.773C316.312 409.883 310.494 427.596 309.828 445.87C313.819 448 317.967 449.822 322.235 451.319Z" stroke="#263238" stroke-width="1.11" stroke-linecap="round" stroke-linejoin="round"/>
<path d="M326.607 394.733C318.203 398.197 310.935 403.943 305.623 411.319C300.312 418.696 297.168 427.411 296.547 436.479C300.548 440.159 305.011 443.302 309.824 445.829C310.49 427.555 316.308 409.842 326.607 394.733Z" stroke="#263238" stroke-width="1.11" stroke-linecap="round" stroke-linejoin="round"/>
<path d="M389.298 433.395C390.357 431.054 391.265 428.649 392.016 426.192C389.984 419.261 386.443 412.866 381.647 407.466L377.883 420.023L381.579 407.466C378.578 404.099 375.125 401.163 371.319 398.742L367.174 414.247L371.346 398.809C367.367 396.264 363.036 394.318 358.49 393.034L352.688 409.341C361.575 410.619 375.314 415.851 389.298 433.395Z" stroke="#263238" stroke-width="1.11" stroke-linecap="round" stroke-linejoin="round"/>
<path d="M347.644 477.261C353.305 473.837 358.706 469.999 363.802 465.778C366.588 463.441 371.697 458.807 371.86 458.807C371.697 458.807 381.455 447.799 384.689 442.051C384.689 442.133 386.129 439.768 386.048 439.686C385.966 439.605 387.217 437.634 387.135 437.553C387.927 436.221 388.618 434.831 389.201 433.395C390.26 431.054 391.168 428.649 391.919 426.192C393.216 430.633 393.875 435.236 393.876 439.863C393.876 440.624 393.876 441.276 393.876 441.983C373.328 470.833 357.496 483.2 347.549 488.622C346.733 488.622 345.918 488.622 345.089 488.622C340.106 488.623 335.152 487.862 330.398 486.366C336.318 483.666 342.076 480.626 347.644 477.261ZM347.644 477.261H347.997" stroke="#263238" stroke-width="1.11" stroke-linecap="round" stroke-linejoin="round"/>
<path d="M393.878 441.983C373.331 470.834 357.499 483.2 347.633 488.5C359.747 487.89 371.198 482.785 379.75 474.183C388.302 465.581 393.339 454.1 393.878 441.983Z" stroke="#263238" stroke-width="1.11" stroke-linecap="round" stroke-linejoin="round"/>
<path d="M307.07 470.249C313.1 477.829 321.252 483.44 330.485 486.366C336.404 483.667 342.162 480.627 347.73 477.261C336.125 479.409 317.969 474.081 307.07 470.249Z" stroke="#263238" stroke-width="1.11" stroke-linecap="round" stroke-linejoin="round"/>
<path d="M347.728 477.261C353.39 473.837 358.791 469.999 363.887 465.778C328.839 469.366 307.218 458.508 298.031 452.338C299.765 458.872 302.843 464.972 307.068 470.249C317.967 474.081 336.123 479.409 347.728 477.261Z" stroke="#263238" stroke-width="1.11" stroke-linecap="round" stroke-linejoin="round"/>
<path d="M368.901 458.793H371.483C369.186 461.104 366.672 463.441 363.887 465.778C328.839 469.366 307.218 458.508 298.031 452.365C296.959 448.294 296.416 444.101 296.414 439.89C296.414 438.762 296.468 437.662 296.55 436.547C299.513 439.333 305.533 445.557 322.234 451.346C333.663 455.41 348.884 458.508 368.901 458.793ZM368.901 458.793C369.091 458.97 369.282 459.147 369.458 459.337" stroke="#263238" stroke-width="1.11" stroke-linecap="round" stroke-linejoin="round"/>
</g>
<path d="M355.983 487.07C382.162 480.988 398.454 454.835 392.372 428.656C386.289 402.477 360.136 386.185 333.956 392.268C307.777 398.35 291.486 424.503 297.568 450.682C303.65 476.861 329.804 493.153 355.983 487.07Z" stroke="#263238" stroke-width="1.11" stroke-linecap="round" stroke-linejoin="round"/>
<path d="M434.598 356.519C434.598 356.519 431.269 345.715 421.566 341.829C414.771 339.111 407.066 339.845 400.067 341.054C387.048 343.324 375.687 348.501 363.375 352.918C363.375 352.918 368.648 350.975 390.269 361.52C398.232 365.393 407.337 368.41 416.442 368.206C423.74 368.043 434.965 365.95 434.598 356.519Z" fill="#60E5AE"/>
<path d="M435.765 324.76C435.765 324.76 435.765 313.44 427.612 306.931C421.931 302.392 414.294 300.829 407.227 299.973C394.113 298.383 381.733 300.055 368.633 300.721C368.633 300.721 374.245 300.395 391.898 316.729C398.408 322.736 406.249 328.253 415.001 330.685C422.04 332.642 433.374 333.893 435.765 324.76Z" fill="#60E5AE"/>
<path d="M458.066 366.765C458.066 366.765 449.246 359.685 449.219 349.235C449.219 341.965 452.711 335.02 456.421 328.973C463.325 317.694 472.321 309.051 480.991 299.199C480.991 299.199 477.241 303.384 479.062 327.37C479.741 336.203 479.17 345.783 475.623 354.168C472.838 360.908 466.763 370.57 458.066 366.765Z" fill="#60E5AE"/>
<path d="M489.322 384.133C489.322 384.133 488.072 372.894 495.438 365.474C500.548 360.324 507.954 357.878 514.844 356.22C527.7 353.122 540.175 353.353 553.262 352.497C553.262 352.497 547.663 352.809 532.007 371.073C526.245 377.868 519.084 384.187 510.645 387.625C503.918 390.384 492.801 392.925 489.322 384.133Z" fill="#60E5AE"/>
<path d="M487.322 344.057C487.322 344.057 476.111 342.522 470.73 333.566C466.979 327.342 466.422 319.569 466.49 312.476C466.625 299.267 469.914 287.213 472.292 274.316C472.292 274.316 471.219 279.834 485.107 299.47C490.217 306.714 494.62 315.221 495.979 324.244C496.944 331.487 496.686 342.889 487.322 344.057Z" fill="#60E5AE"/>
<path d="M519.587 323.932C519.587 323.932 527.646 331.868 538.028 330.726C545.244 329.897 551.74 325.59 557.312 321.214C567.694 313.06 575.237 303.085 584.002 293.342C584.002 293.342 580.292 297.541 556.252 298.533C547.405 298.9 537.96 300.571 530.038 305.083C523.678 308.643 514.804 315.805 519.587 323.932Z" fill="#60E5AE"/>
<path d="M510.25 316.09C510.25 316.09 521.503 317.218 528.841 309.785C533.951 304.607 536.315 297.187 537.905 290.27C540.868 277.401 540.515 264.913 541.221 251.826C541.221 251.826 540.977 257.425 522.862 273.27C516.203 279.1 509.884 286.33 506.554 294.796C503.85 301.604 501.417 312.747 510.25 316.09Z" fill="#60E5AE"/>
<path d="M470.053 425.635L450.634 377.814L428.211 322.532" stroke="#263238" stroke-width="1.11" stroke-linecap="round" stroke-linejoin="round"/>
<path d="M474.539 417.413L493.972 350.92L514.887 309.826" stroke="#263238" stroke-width="1.11" stroke-linecap="round" stroke-linejoin="round"/>
<path d="M482.016 391.267L501.449 380.056" stroke="#263238" stroke-width="1.11" stroke-linecap="round" stroke-linejoin="round"/>
<path d="M493.974 350.92L484.258 329.245" stroke="#263238" stroke-width="1.11" stroke-linecap="round" stroke-linejoin="round"/>
<path d="M506.117 329.354L529.831 318.795" stroke="#263238" stroke-width="1.11" stroke-linecap="round" stroke-linejoin="round"/>
<path d="M454.367 386.783L462.589 353.91" stroke="#263238" stroke-width="1.11" stroke-linecap="round" stroke-linejoin="round"/>
<path d="M443.475 361.792L424.477 351.667" stroke="#263238" stroke-width="1.11" stroke-linecap="round" stroke-linejoin="round"/>
<path d="M480.03 449.539H463.831C461.183 449.538 458.618 448.613 456.579 446.923C454.54 445.234 453.154 442.886 452.66 440.284L446.898 409.939H496.963L491.214 440.284C490.718 442.887 489.329 445.235 487.288 446.924C485.246 448.614 482.68 449.538 480.03 449.539Z" fill="#263238" stroke="#263238" stroke-width="1.11" stroke-linecap="round" stroke-linejoin="round"/>
<path d="M24.0938 264.546C24.0938 260.782 25.8332 258.009 29.747 258.009C33.6608 258.009 35.4683 260.727 35.4683 264.546V277.755C35.4683 281.519 33.7288 284.291 29.747 284.291C25.7653 284.291 24.0938 281.573 24.0938 277.755V264.546ZM25.7925 277.863C25.7925 280.676 26.9068 282.742 29.747 282.742C32.5873 282.742 33.8239 280.676 33.8239 277.863V264.437C33.8239 261.624 32.6824 259.558 29.747 259.558C26.8117 259.558 25.7925 261.624 25.7925 264.437V277.863Z" fill="#263238"/>
<path d="M38.1484 264.546C38.1484 260.782 39.8879 258.009 43.8017 258.009C47.7155 258.009 49.5229 260.727 49.5229 264.546V277.755C49.5229 281.519 47.7835 284.291 43.8017 284.291C39.82 284.291 38.1484 281.573 38.1484 277.755V264.546ZM39.8471 277.863C39.8471 280.676 40.9615 282.742 43.8017 282.742C46.642 282.742 47.8786 280.676 47.8786 277.863V264.437C47.8786 261.624 46.7371 259.558 43.8017 259.558C40.8664 259.558 39.8471 261.624 39.8471 264.437V277.863Z" fill="#263238"/>
<path d="M57.6902 258.227C61.6856 258.227 63.2348 260.741 63.2348 264.505V267.318C63.2348 271.395 61.3458 273.433 57.2554 273.433H54.0346V284.074H52.3359V258.254L57.6902 258.227ZM57.2554 271.884C60.2451 271.884 61.5361 270.525 61.5361 267.427V264.396C61.5361 261.597 60.5712 259.776 57.6902 259.776H54.0346V271.884H57.2554Z" fill="#263238"/>
<path d="M76.671 264.464V265.021H75.0402V264.355C75.0402 261.638 74.0074 259.558 71.208 259.558C68.4085 259.558 67.3621 261.556 67.3621 264.274C67.3621 270.539 76.6982 270.647 76.6982 277.782C76.6982 281.505 75.081 284.237 71.1264 284.237C67.1718 284.237 65.5547 281.519 65.5547 277.782V276.423H67.1854V277.863C67.1854 280.581 68.2454 282.62 71.0857 282.62C73.9259 282.62 74.9995 280.622 74.9995 277.863C74.9995 271.653 65.6634 271.544 65.6634 264.355C65.6634 260.482 67.3621 257.968 71.0993 257.928C74.8364 257.887 76.671 260.741 76.671 264.464Z" fill="#263238"/>
<path d="M80.9157 280.826V284.074H79.2578V280.826H80.9157Z" fill="#263238"/>
<path d="M85.5309 280.826V284.074H83.8594V280.826H85.5309Z" fill="#263238"/>
<path d="M90.142 280.826V284.074H88.4297V280.826H90.142Z" fill="#263238"/>
<path d="M29.5574 295.829C33.5528 295.829 35.102 298.329 35.102 302.093V304.906C35.102 308.983 33.213 311.035 29.1226 311.035H25.9154V321.662H24.2031V295.842L29.5574 295.829ZM29.1226 309.418C32.1123 309.418 33.4033 308.059 33.4033 304.947V301.917C33.4033 299.117 32.4384 297.31 29.5574 297.31H25.9154V309.418H29.1226Z" fill="#263238"/>
<path d="M39.6429 315.914L38.3519 321.635H36.7891L42.4288 295.815H44.9428L50.7048 321.635H49.0197L47.6608 315.914H39.6429ZM39.9011 314.432H47.4297L43.5839 297.745L39.9011 314.432Z" fill="#263238"/>
<path d="M64.2685 302.134V304.05H62.6106V302.025C62.6106 299.308 61.5506 297.147 58.6967 297.147C55.8429 297.147 54.7965 299.253 54.7965 302.025V315.465C54.7965 318.183 55.8565 320.29 58.6967 320.29C61.537 320.29 62.6106 318.224 62.6106 315.465V309.88H59.2132V308.331H64.2685V315.343C64.2685 319.08 62.6377 321.88 58.6967 321.88C54.7558 321.88 53.125 319.08 53.125 315.343V302.134C53.125 298.411 54.7422 295.598 58.6967 295.598C62.6513 295.598 64.2685 298.411 64.2685 302.134Z" fill="#263238"/>
<path d="M75.8533 307.76V309.309H68.8003V320.086H77.2938V321.635H67.1016V295.815H77.2938V297.364H68.8003V307.76H75.8533Z" fill="#263238"/>
<path d="M87.3383 321.662H85.7891V295.842H88.0042L95.7503 317.585V295.842H97.2995V321.662H95.4241L87.2703 298.56L87.3383 321.662Z" fill="#263238"/>
<path d="M100.117 302.134C100.117 298.37 101.843 295.598 105.757 295.598C109.671 295.598 111.478 298.316 111.478 302.134V315.343C111.478 319.107 109.752 321.88 105.757 321.88C101.762 321.88 100.117 319.162 100.117 315.343V302.134ZM101.816 315.465C101.816 318.265 102.917 320.33 105.757 320.33C108.597 320.33 109.834 318.265 109.834 315.465V302.025C109.834 299.212 108.692 297.147 105.757 297.147C102.822 297.147 101.816 299.212 101.816 302.025V315.465Z" fill="#263238"/>
<path d="M118.638 321.662V297.378H113.406V295.829H125.637V297.378H120.351V321.662H118.638Z" fill="#263238"/>
<path d="M141.824 308.413V309.962H135.152V321.662H133.453V295.842H143.265V297.391H135.111V308.426L141.824 308.413Z" fill="#263238"/>
<path d="M145.734 302.134C145.734 298.37 147.474 295.598 151.388 295.598C155.301 295.598 157.109 298.316 157.109 302.134V315.343C157.109 319.107 155.369 321.88 151.388 321.88C147.406 321.88 145.734 319.162 145.734 315.343V302.134ZM147.433 315.465C147.433 318.265 148.547 320.33 151.388 320.33C154.228 320.33 155.465 318.265 155.465 315.465V302.025C155.465 299.212 154.323 297.147 151.388 297.147C148.452 297.147 147.433 299.212 147.433 302.025V315.465Z" fill="#263238"/>
<path d="M161.543 315.425C161.543 318.142 162.576 320.33 165.416 320.33C168.256 320.33 169.289 318.197 169.289 315.425V295.829H170.879V315.343C170.879 319.039 169.33 321.88 165.443 321.88C161.556 321.88 159.898 319.039 159.898 315.343V295.829H161.597L161.543 315.425Z" fill="#263238"/>
<path d="M175.401 321.662H173.852V295.842H176.067L183.813 317.585V295.842H185.362V321.662H183.487L175.401 298.56V321.662Z" fill="#263238"/>
<path d="M193.907 295.829C197.902 295.829 199.628 298.438 199.628 302.243V315.234C199.628 319.039 197.902 321.662 193.907 321.662H188.227V295.842L193.907 295.829ZM193.907 320.113C196.788 320.113 197.984 318.156 197.984 315.316V302.175C197.984 299.335 196.774 297.378 193.907 297.378H189.952V320.113H193.907Z" fill="#263238"/>
<path d="M258.505 385.6C228.255 385.6 210.072 358.761 203.617 335.156L203.399 334.327C203.055 333.183 202.946 331.981 203.077 330.793C203.209 329.605 203.578 328.456 204.164 327.414C204.75 326.372 205.54 325.459 206.486 324.73C207.433 324 208.517 323.469 209.674 323.169C210.831 322.868 212.036 322.803 213.218 322.979C214.4 323.155 215.535 323.567 216.554 324.192C217.573 324.816 218.456 325.64 219.149 326.613C219.843 327.586 220.333 328.689 220.59 329.857L220.753 330.468C225.659 348.433 239.018 368.967 260.449 367.785C264.478 367.642 268.432 366.655 272.056 364.887C275.679 363.12 278.892 360.612 281.485 357.525C293.24 344.044 298.499 314.731 297.331 299.946C297.22 298.997 297.302 298.036 297.571 297.12C297.841 296.203 298.292 295.35 298.898 294.612C299.504 293.874 300.253 293.266 301.1 292.823C301.947 292.381 302.874 292.114 303.826 292.038C304.778 291.962 305.736 292.079 306.642 292.382C307.548 292.685 308.384 293.167 309.099 293.8C309.815 294.432 310.395 295.203 310.806 296.065C311.217 296.928 311.45 297.864 311.491 298.818C312.85 315.275 311.056 350.648 294.871 369.198C290.728 374.076 285.621 378.043 279.869 380.849C274.118 383.656 267.848 385.241 261.454 385.505C260.462 385.573 259.47 385.6 258.505 385.6Z" fill="white"/>
<mask id="mask1_17993_1389" style="mask-type:luminance" maskUnits="userSpaceOnUse" x="203" y="292" width="109" height="94">
<path d="M258.505 385.6C228.255 385.6 210.072 358.761 203.617 335.156L203.399 334.327C203.055 333.183 202.946 331.981 203.077 330.793C203.209 329.605 203.578 328.456 204.164 327.414C204.75 326.372 205.54 325.459 206.486 324.73C207.433 324 208.517 323.469 209.674 323.169C210.831 322.868 212.036 322.803 213.218 322.979C214.4 323.155 215.535 323.567 216.554 324.192C217.573 324.816 218.456 325.64 219.149 326.613C219.843 327.586 220.333 328.689 220.59 329.857L220.753 330.468C225.659 348.433 239.018 368.967 260.449 367.785C264.478 367.642 268.432 366.655 272.056 364.887C275.679 363.12 278.892 360.612 281.485 357.525C293.24 344.044 298.499 314.731 297.331 299.946C297.22 298.997 297.302 298.036 297.571 297.12C297.841 296.203 298.292 295.35 298.898 294.612C299.504 293.874 300.253 293.266 301.1 292.823C301.947 292.381 302.874 292.114 303.826 292.038C304.778 291.962 305.736 292.079 306.642 292.382C307.548 292.685 308.384 293.167 309.099 293.8C309.815 294.432 310.395 295.203 310.806 296.065C311.217 296.928 311.45 297.864 311.491 298.818C312.85 315.275 311.056 350.648 294.871 369.198C290.728 374.076 285.621 378.043 279.869 380.849C274.118 383.656 267.848 385.241 261.454 385.505C260.462 385.573 259.47 385.6 258.505 385.6Z" fill="white"/>
</mask>
<g mask="url(#mask1_17993_1389)">
<path d="M303.842 292.295C301.965 292.448 300.224 293.339 299.004 294.774C297.783 296.208 297.182 298.069 297.332 299.946C297.903 307.162 296.938 317.83 294.438 328.484C298.009 328.333 301.58 328.793 304.997 329.843C304.189 340.067 300.598 349.875 294.615 358.204C281.419 376.536 261.633 382.393 246.235 380.192C239.346 379.213 231.436 375.599 224.805 371.889C233.821 380.682 245.912 385.611 258.507 385.628C259.472 385.628 260.464 385.628 261.456 385.546C267.85 385.282 274.12 383.697 279.871 380.89C285.622 378.083 290.73 374.116 294.873 369.239C311.058 350.689 312.797 315.316 311.493 298.859C311.426 297.924 311.174 297.012 310.753 296.175C310.331 295.337 309.748 294.592 309.036 293.982C308.325 293.371 307.499 292.908 306.608 292.619C305.716 292.329 304.776 292.219 303.842 292.295Z" fill="#60E5AE"/>
<path opacity="0.5" d="M303.842 292.295C301.965 292.448 300.224 293.339 299.004 294.774C297.783 296.208 297.182 298.069 297.332 299.946C297.903 307.162 296.938 317.83 294.438 328.484C298.009 328.333 301.58 328.793 304.997 329.843C304.189 340.067 300.598 349.875 294.615 358.204C281.419 376.536 261.633 382.393 246.235 380.192C239.346 379.213 231.436 375.599 224.805 371.889C233.821 380.682 245.912 385.611 258.507 385.628C259.472 385.628 260.464 385.628 261.456 385.546C267.85 385.282 274.12 383.697 279.871 380.89C285.622 378.083 290.73 374.116 294.873 369.239C311.058 350.689 312.797 315.316 311.493 298.859C311.426 297.924 311.174 297.012 310.753 296.175C310.331 295.337 309.748 294.592 309.036 293.982C308.325 293.371 307.499 292.908 306.608 292.619C305.716 292.329 304.776 292.219 303.842 292.295Z" fill="white"/>
</g>
<path d="M258.505 385.6C228.255 385.6 210.072 358.761 203.617 335.156L203.399 334.327C203.055 333.183 202.946 331.981 203.077 330.793C203.209 329.605 203.578 328.456 204.164 327.414C204.75 326.372 205.54 325.459 206.486 324.73C207.433 324 208.517 323.469 209.674 323.169C210.831 322.868 212.036 322.803 213.218 322.979C214.4 323.155 215.535 323.567 216.554 324.192C217.573 324.816 218.456 325.64 219.149 326.613C219.843 327.586 220.333 328.689 220.59 329.857L220.753 330.468C225.659 348.433 239.018 368.967 260.449 367.785C264.478 367.642 268.432 366.655 272.056 364.887C275.679 363.12 278.892 360.612 281.485 357.525C293.24 344.044 298.499 314.731 297.331 299.946C297.22 298.997 297.302 298.036 297.571 297.12C297.841 296.203 298.292 295.35 298.898 294.612C299.504 293.874 300.253 293.266 301.1 292.823C301.947 292.381 302.874 292.114 303.826 292.038C304.778 291.962 305.736 292.079 306.642 292.382C307.548 292.685 308.384 293.167 309.099 293.8C309.815 294.432 310.395 295.203 310.806 296.065C311.217 296.928 311.45 297.864 311.491 298.818C312.85 315.275 311.056 350.648 294.871 369.198C290.728 374.076 285.621 378.043 279.869 380.849C274.118 383.656 267.848 385.241 261.454 385.505C260.462 385.573 259.47 385.6 258.505 385.6Z" stroke="#263238" stroke-width="1.11" stroke-linecap="round" stroke-linejoin="round"/>
<path d="M241.056 367.214C241.777 363.885 233.813 369.089 227.141 373.941C229.609 376.027 232.266 377.878 235.077 379.472C237.455 375.599 240.363 370.421 241.056 367.214Z" fill="#60E5AE" stroke="#263238" stroke-width="1.11" stroke-linecap="round" stroke-linejoin="round"/>
<path d="M258.503 385.601C259.468 385.601 260.46 385.601 261.452 385.519C264.339 385.357 267.207 384.953 270.027 384.31C266.276 379.417 261.112 372.949 259.631 372.46C257.932 371.889 254.657 380.219 252.836 385.274C254.717 385.494 256.609 385.603 258.503 385.601Z" fill="#60E5AE" stroke="#263238" stroke-width="1.11" stroke-linecap="round" stroke-linejoin="round"/>
<path d="M220.753 330.468L220.59 329.857C220.333 328.69 219.843 327.586 219.149 326.613C218.456 325.64 217.573 324.816 216.554 324.192C215.535 323.567 214.4 323.155 213.218 322.979C212.036 322.803 210.831 322.868 209.674 323.169C208.517 323.47 207.433 324.001 206.486 324.73C205.54 325.459 204.75 326.372 204.164 327.414C203.578 328.456 203.209 329.605 203.077 330.793C202.946 331.981 203.055 333.183 203.399 334.328L203.617 335.157C205.883 343.446 209.363 351.355 213.945 358.625L230.13 350.92C225.886 344.673 222.717 337.761 220.753 330.468Z" fill="#60E5AE" stroke="#263238" stroke-width="1.11" stroke-linecap="round" stroke-linejoin="round"/>
<path d="M294.87 369.198C296.114 367.758 297.266 366.242 298.322 364.659C293.185 362.906 285.493 360.487 282.639 360.745C279.255 361.058 283.849 371.929 286.213 377.053C289.396 374.782 292.302 372.146 294.87 369.198Z" fill="#60E5AE" stroke="#263238" stroke-width="1.11" stroke-linecap="round" stroke-linejoin="round"/>
<path d="M295.156 340.157C294.613 341.245 301.258 346.082 305.743 349.194C307.165 344.961 308.309 340.64 309.167 336.257C303.731 337.344 295.686 339.098 295.156 340.157Z" fill="#60E5AE" stroke="#263238" stroke-width="1.11" stroke-linecap="round" stroke-linejoin="round"/>
<path d="M311.367 320.059C311.666 316.186 311.815 312.489 311.829 309.092C307.154 311.66 301.609 315.221 301.609 317.558C301.609 319.896 306.801 320.181 311.367 320.059Z" fill="#60E5AE" stroke="#263238" stroke-width="1.11" stroke-linecap="round" stroke-linejoin="round"/>
<path d="M238.198 214.917C238.198 214.917 225.002 253.131 232.11 282.864C234.215 291.565 238.301 299.662 244.051 306.524C249.8 313.386 257.057 318.827 265.255 322.423C265.255 322.423 245.971 329.218 250.306 339.668C254.641 350.119 271.275 343.392 276.684 340.008C282.092 336.624 288.846 326.486 289.866 319.719C290.47 316.261 290.698 312.748 290.545 309.241C290.545 309.241 312.52 306.877 327.4 294.701C327.4 294.701 340.596 305.178 350.068 303.153C359.54 301.129 373.061 284.21 371.702 269.003C370.343 253.797 361.578 253.81 356.224 256.12C353.444 257.171 350.91 258.781 348.777 260.849C348.777 260.849 356.55 251.337 348.777 238.196C346.482 234.341 343.341 231.059 339.59 228.599C335.839 226.139 331.578 224.564 327.128 223.995C327.128 223.995 323.051 202.347 310.902 194.234C298.753 186.121 255.443 177.723 238.198 214.917Z" fill="white"/>
<mask id="mask2_17993_1389" style="mask-type:luminance" maskUnits="userSpaceOnUse" x="230" y="187" width="142" height="159">
<path d="M238.198 214.917C238.198 214.917 225.002 253.131 232.11 282.864C234.215 291.565 238.301 299.662 244.051 306.524C249.8 313.386 257.057 318.827 265.255 322.423C265.255 322.423 245.971 329.218 250.306 339.668C254.641 350.119 271.275 343.392 276.684 340.008C282.092 336.624 288.846 326.486 289.866 319.719C290.47 316.261 290.698 312.748 290.545 309.241C290.545 309.241 312.52 306.877 327.4 294.701C327.4 294.701 340.596 305.178 350.068 303.153C359.54 301.129 373.061 284.21 371.702 269.003C370.343 253.797 361.578 253.81 356.224 256.12C353.444 257.171 350.91 258.781 348.777 260.849C348.777 260.849 356.55 251.337 348.777 238.196C346.482 234.341 343.341 231.059 339.59 228.599C335.839 226.139 331.578 224.564 327.128 223.995C327.128 223.995 323.051 202.347 310.902 194.234C298.753 186.121 255.443 177.723 238.198 214.917Z" fill="white"/>
</mask>
<g mask="url(#mask2_17993_1389)">
<path d="M338.667 228.058C332.394 238.523 323.713 247.339 313.346 253.772C302.979 260.206 291.225 264.072 279.063 265.049C252.156 267.413 237.071 262.113 230.141 258.431C230.982 243.645 233.722 229.03 238.294 214.944C255.54 177.75 298.823 186.203 310.999 194.316C323.175 202.428 327.225 224.076 327.225 224.076C331.276 224.585 335.175 225.942 338.667 228.058ZM356.225 256.12C353.446 257.171 350.911 258.781 348.778 260.849C350.424 258.581 351.509 255.954 351.944 253.185C333.666 262.29 335.093 281.723 332.824 281.723C330.024 281.723 328.638 271.952 328.638 271.952C328.638 271.952 325.146 285.908 304.177 295.693C283.208 305.477 259.494 297.786 259.494 297.786C259.494 297.786 264.386 308.956 251.816 307.556C248.288 307.219 244.906 305.984 241.991 303.969C248.019 312.005 256.024 318.344 265.229 322.369C265.229 322.369 245.945 329.164 250.28 339.614C254.616 350.064 271.249 343.337 276.658 339.954C282.067 336.57 288.821 326.432 289.84 319.665C290.444 316.207 290.672 312.694 290.519 309.187C290.519 309.187 312.494 306.823 327.374 294.646C327.374 294.646 340.57 305.124 350.042 303.099C359.514 301.074 373.035 284.155 371.676 268.949C370.317 253.742 361.579 253.81 356.225 256.12Z" fill="#60E5AE"/>
<path opacity="0.5" d="M338.667 228.058C332.394 238.523 323.713 247.339 313.346 253.772C302.979 260.206 291.225 264.072 279.063 265.049C252.156 267.413 237.071 262.113 230.141 258.431C230.982 243.645 233.722 229.03 238.294 214.944C255.54 177.75 298.823 186.203 310.999 194.316C323.175 202.428 327.225 224.076 327.225 224.076C331.276 224.585 335.175 225.942 338.667 228.058ZM356.225 256.12C353.446 257.171 350.911 258.781 348.778 260.849C350.424 258.581 351.509 255.954 351.944 253.185C333.666 262.29 335.093 281.723 332.824 281.723C330.024 281.723 328.638 271.952 328.638 271.952C328.638 271.952 325.146 285.908 304.177 295.693C283.208 305.477 259.494 297.786 259.494 297.786C259.494 297.786 264.386 308.956 251.816 307.556C248.288 307.219 244.906 305.984 241.991 303.969C248.019 312.005 256.024 318.344 265.229 322.369C265.229 322.369 245.945 329.164 250.28 339.614C254.616 350.064 271.249 343.337 276.658 339.954C282.067 336.57 288.821 326.432 289.84 319.665C290.444 316.207 290.672 312.694 290.519 309.187C290.519 309.187 312.494 306.823 327.374 294.646C327.374 294.646 340.57 305.124 350.042 303.099C359.514 301.074 373.035 284.155 371.676 268.949C370.317 253.742 361.579 253.81 356.225 256.12Z" fill="white"/>
<path d="M290.614 309.269C283.321 309.463 276.08 307.982 269.449 304.941C262.817 301.9 256.971 297.378 252.359 291.725" stroke="#263238" stroke-width="1.11" stroke-linecap="round" stroke-linejoin="round"/>
</g>
<path d="M238.198 214.917C238.198 214.917 225.002 253.131 232.11 282.864C234.215 291.565 238.301 299.662 244.051 306.524C249.8 313.386 257.057 318.827 265.255 322.423C265.255 322.423 245.971 329.218 250.306 339.668C254.641 350.119 271.275 343.392 276.684 340.008C282.092 336.624 288.846 326.486 289.866 319.719C290.47 316.261 290.698 312.748 290.545 309.241C290.545 309.241 312.52 306.877 327.4 294.701C327.4 294.701 340.596 305.178 350.068 303.153C359.54 301.129 373.061 284.21 371.702 269.003C370.343 253.797 361.578 253.81 356.224 256.12C353.444 257.171 350.91 258.781 348.777 260.849C348.777 260.849 356.55 251.337 348.777 238.196C346.482 234.341 343.341 231.059 339.59 228.599C335.839 226.139 331.578 224.564 327.128 223.995C327.128 223.995 323.051 202.347 310.902 194.234C298.753 186.121 255.443 177.723 238.198 214.917Z" stroke="#263238" stroke-width="1.11" stroke-linecap="round" stroke-linejoin="round"/>
<path d="M348.782 260.904C348.782 260.904 341.675 265.647 338.305 280.187" stroke="#263238" stroke-width="1.11" stroke-linecap="round" stroke-linejoin="round"/>
<path d="M361.811 267.128C360.982 269.601 358.712 271.082 356.755 270.416C354.798 269.75 353.901 267.209 354.73 264.736C355.559 262.263 357.829 260.781 359.786 261.447C361.743 262.113 362.653 264.654 361.811 267.128Z" fill="white" stroke="#263238" stroke-width="1.11" stroke-linecap="round" stroke-linejoin="round"/>
<path d="M368.809 271.531C367.98 274.004 365.71 275.485 363.753 274.819C361.796 274.154 360.886 271.612 361.728 269.139C362.571 266.666 364.827 265.185 366.784 265.85C368.741 266.516 369.651 269.058 368.809 271.531Z" fill="white" stroke="#263238" stroke-width="1.11" stroke-linecap="round" stroke-linejoin="round"/>
<path d="M370.305 278.122C370.034 278.576 369.639 278.945 369.167 279.185C368.694 279.424 368.164 279.525 367.637 279.475C367.109 279.424 366.607 279.226 366.188 278.902C365.769 278.578 365.451 278.141 365.27 277.644C365.089 277.146 365.053 276.607 365.166 276.089C365.279 275.572 365.537 275.097 365.909 274.721C366.281 274.344 366.753 274.08 367.269 273.961C367.785 273.841 368.324 273.87 368.824 274.045C369.546 274.406 370.102 275.03 370.377 275.788C370.653 276.546 370.627 277.382 370.305 278.122Z" fill="white" stroke="#263238" stroke-width="1.11" stroke-linecap="round" stroke-linejoin="round"/>
<path d="M361.378 287.172C358.932 291.589 354.039 293.546 350.438 291.548C346.837 289.55 345.913 284.373 348.359 279.956C350.805 275.54 355.697 273.583 359.299 275.58C362.9 277.578 363.824 282.756 361.378 287.172Z" fill="white" stroke="#263238" stroke-width="1.11" stroke-linecap="round" stroke-linejoin="round"/>
<path d="M265.258 322.45C269.815 324.564 274.991 324.927 279.799 323.47" stroke="#263238" stroke-width="1.11" stroke-linecap="round" stroke-linejoin="round"/>
<path d="M250.375 339.695C250.375 339.695 251.734 333.947 260.173 329.897" stroke="#263238" stroke-width="1.11" stroke-linecap="round" stroke-linejoin="round"/>
<path d="M258.828 344.778C258.828 344.778 262.212 336.624 267.96 332.941" stroke="#263238" stroke-width="1.11" stroke-linecap="round" stroke-linejoin="round"/>
<path d="M125.474 251.228C124.037 250.081 122.891 248.61 122.131 246.936C121.37 245.261 121.016 243.431 121.099 241.593V209.373H37.9845C35.9543 209.449 33.9316 209.085 32.0551 208.306C30.1786 207.528 28.4926 206.352 27.1128 204.861C24.3944 201.985 22.9028 198.164 22.9544 194.207C22.9434 190.992 23.8895 187.846 25.6723 185.17L105.28 60.0655C111.26 50.8337 119.205 46.2179 129.116 46.2179C134.445 46.0368 139.648 47.86 143.698 51.3275C147.585 54.7249 149.528 59.7756 149.528 66.4797V188.092H170.674C172.134 188.004 173.596 188.238 174.956 188.778C176.316 189.318 177.54 190.151 178.542 191.217C180.33 193.313 181.312 195.977 181.312 198.732C181.312 201.487 180.33 204.151 178.542 206.247C177.54 207.313 176.316 208.146 174.956 208.686C173.596 209.226 172.134 209.461 170.674 209.373H149.379V241.593C149.467 243.417 149.131 245.236 148.398 246.907C147.664 248.579 146.553 250.058 145.152 251.228C142.417 253.522 138.951 254.76 135.381 254.721C131.772 254.749 128.268 253.514 125.474 251.228ZM121.044 188.092V76.1146L51.3431 188.092H121.044Z" fill="#263238"/>
<path d="M240.81 251.88C232.664 248.325 225.45 242.935 219.732 236.13C213.989 228.941 209.505 220.831 206.469 212.145C203.028 202.761 200.608 193.034 199.253 183.131C197.838 172.35 197.157 161.485 197.214 150.612C197.214 78.9774 221.676 43.1602 270.598 43.1602C319.521 43.1602 343.923 78.9774 343.805 150.612C343.854 161.433 343.196 172.246 341.835 182.982C340.524 192.886 338.126 202.616 334.687 211.995C331.651 220.682 327.166 228.791 321.423 235.981C315.698 242.794 308.488 248.206 300.346 251.799C290.985 255.937 280.831 257.978 270.598 257.778C260.36 257.984 250.198 255.972 240.81 251.88ZM285.058 231.32C289.151 229.573 292.866 227.049 295.997 223.886C299.167 220.511 301.774 216.647 303.716 212.444C305.859 207.99 307.592 203.351 308.894 198.583C310.264 193.387 311.263 188.101 311.883 182.764C312.617 176.876 313.106 171.481 313.351 166.579C313.596 161.678 313.713 156.356 313.704 150.612C313.704 144.587 313.587 139.025 313.351 133.924C313.116 128.823 312.604 123.351 311.815 117.508C311.139 112.175 310.117 106.891 308.758 101.69C307.472 96.9695 305.738 92.3827 303.58 87.9917C301.623 83.8547 299.012 80.0599 295.848 76.7533C292.735 73.6541 289.041 71.2017 284.976 69.5373C275.684 65.9499 265.39 65.9499 256.098 69.5373C252.063 71.1817 248.396 73.6114 245.308 76.6853C242.167 79.9776 239.562 83.7423 237.589 87.8422C235.412 92.1937 233.699 96.7623 232.479 101.472C231.153 106.705 230.154 112.015 229.49 117.372C228.701 123.297 228.189 128.814 227.954 133.924C227.718 139.034 227.596 144.596 227.587 150.612C227.587 156.347 227.709 161.692 227.954 166.647C228.199 171.603 228.683 177.039 229.408 182.955C230.035 188.291 231.034 193.576 232.398 198.773C233.681 203.539 235.396 208.179 237.521 212.634C239.444 216.812 242.027 220.653 245.172 224.008C248.279 227.151 251.973 229.653 256.044 231.374C265.344 235.16 275.757 235.16 285.058 231.374V231.32Z" fill="#263238"/>
<path d="M469.724 251.228C468.287 250.081 467.141 248.61 466.381 246.936C465.62 245.261 465.266 243.43 465.349 241.593V209.373H382.235C380.204 209.449 378.182 209.085 376.305 208.306C374.429 207.527 372.743 206.352 371.363 204.861C368.644 201.985 367.153 198.164 367.204 194.207C367.193 190.991 368.14 187.846 369.922 185.17L449.53 60.0654C455.455 50.8336 463.378 46.2177 473.298 46.2177C478.655 46.0161 483.891 47.8405 487.962 51.3274C491.848 54.7247 493.792 59.7755 493.792 66.4796V188.092H514.937C516.398 188.004 517.86 188.238 519.219 188.778C520.579 189.318 521.803 190.151 522.805 191.217C524.594 193.313 525.576 195.977 525.576 198.732C525.576 201.487 524.594 204.151 522.805 206.247C521.803 207.313 520.579 208.146 519.219 208.686C517.86 209.226 516.398 209.461 514.937 209.373H493.629V241.593C493.717 243.417 493.381 245.236 492.648 246.907C491.914 248.579 490.803 250.058 489.402 251.228C486.667 253.522 483.201 254.76 479.631 254.721C476.022 254.749 472.517 253.513 469.724 251.228ZM465.349 188.092V76.1145L395.647 188.092H465.349Z" fill="#263238"/>
<path d="M210.802 195.647C210.802 195.647 196.601 215.597 194.576 235.886C192.551 256.175 194.916 269.696 201.004 274.779C207.092 279.861 213.167 277.823 216.551 273.08C219.934 268.337 214.526 251.772 214.526 251.772C214.526 251.772 220.274 235.886 229.067 224.729C237.859 213.572 239.544 211.873 239.544 211.873C239.544 211.873 224.324 194.628 210.802 195.647Z" fill="white"/>
<mask id="mask3_17993_1389" style="mask-type:luminance" maskUnits="userSpaceOnUse" x="193" y="195" width="47" height="83">
<path d="M210.802 195.647C210.802 195.647 196.601 215.597 194.576 235.886C192.551 256.175 194.916 269.696 201.004 274.779C207.092 279.861 213.167 277.823 216.551 273.08C219.934 268.337 214.526 251.772 214.526 251.772C214.526 251.772 220.274 235.886 229.067 224.729C237.859 213.572 239.544 211.873 239.544 211.873C239.544 211.873 224.324 194.628 210.802 195.647Z" fill="white"/>
</mask>
<g mask="url(#mask3_17993_1389)">
<path d="M210.8 195.647C207.701 200.226 204.953 205.032 202.578 210.025C209.373 212.743 219.905 218.314 226.591 228.18C227.406 226.998 228.249 225.829 229.119 224.729C237.911 213.572 239.596 211.873 239.596 211.873C239.596 211.873 224.322 194.628 210.8 195.647Z" fill="#60E5AE"/>
<path opacity="0.5" d="M210.8 195.647C207.701 200.226 204.953 205.032 202.578 210.025C209.373 212.743 219.905 218.314 226.591 228.18C227.406 226.998 228.249 225.829 229.119 224.729C237.911 213.572 239.596 211.873 239.596 211.873C239.596 211.873 224.322 194.628 210.8 195.647Z" fill="white"/>
</g>
<path d="M210.802 195.647C210.802 195.647 196.601 215.597 194.576 235.886C192.551 256.175 194.916 269.696 201.004 274.779C207.092 279.861 213.167 277.823 216.551 273.08C219.934 268.337 214.526 251.772 214.526 251.772C214.526 251.772 220.274 235.886 229.067 224.729C237.859 213.572 239.544 211.873 239.544 211.873C239.544 211.873 224.324 194.628 210.802 195.647Z" stroke="#263238" stroke-width="1.11" stroke-linecap="round" stroke-linejoin="round"/>
<path d="M201.002 274.779C199.342 270.345 198.535 265.637 198.624 260.904" stroke="#263238" stroke-width="1.11" stroke-linecap="round" stroke-linejoin="round"/>
<path d="M210.124 276.804C210.124 276.804 206.754 271.055 206.414 261.244" stroke="#263238" stroke-width="1.11" stroke-linecap="round" stroke-linejoin="round"/>
<path d="M215.207 231.822C215.207 228.262 208.412 221.304 198.967 218.233C197.698 221.544 196.649 224.935 195.828 228.384C199.498 229.012 203.061 230.151 206.414 231.768C211.483 234.527 215.207 235.886 215.207 231.822Z" fill="#60E5AE" stroke="#263238" stroke-width="1.11" stroke-linecap="round" stroke-linejoin="round"/>
<path d="M209.971 196.857C207.781 200.196 205.767 203.648 203.938 207.198C206.797 207.954 209.541 209.097 212.091 210.596C222.569 216.67 224.594 217.39 221.223 208.557C219.185 203.013 214.32 199.248 209.971 196.857Z" fill="#60E5AE" stroke="#263238" stroke-width="1.11" stroke-linecap="round" stroke-linejoin="round"/>
<path d="M322.034 185.795C322.034 185.795 338.124 204.249 342.133 224.253C346.142 244.257 345.123 257.941 339.551 263.581C333.979 269.221 327.742 267.807 323.909 263.418C320.077 259.028 323.909 242.028 323.909 242.028C323.909 242.028 316.625 226.767 306.787 216.521C296.948 206.274 295.086 204.766 295.086 204.766C295.086 204.766 308.472 186.107 322.034 185.795Z" fill="white"/>
<mask id="mask4_17993_1389" style="mask-type:luminance" maskUnits="userSpaceOnUse" x="295" y="185" width="50" height="83">
<path d="M322.034 185.795C322.034 185.795 338.124 204.249 342.133 224.253C346.142 244.257 345.123 257.941 339.551 263.581C333.979 269.221 327.742 267.807 323.909 263.418C320.077 259.028 323.909 242.028 323.909 242.028C323.909 242.028 316.625 226.767 306.787 216.521C296.948 206.274 295.086 204.766 295.086 204.766C295.086 204.766 308.472 186.107 322.034 185.795Z" fill="white"/>
</mask>
<g mask="url(#mask4_17993_1389)">
<path d="M322.032 185.795C308.442 186.107 295.016 204.82 295.016 204.82C295.016 204.82 296.864 206.342 306.716 216.575C308.559 218.516 310.292 220.557 311.908 222.69C317.05 214.004 324.396 206.832 333.202 201.898C329.962 196.211 326.224 190.822 322.032 185.795Z" fill="#60E5AE"/>
<path opacity="0.5" d="M322.032 185.795C308.442 186.107 295.016 204.82 295.016 204.82C295.016 204.82 296.864 206.342 306.716 216.575C308.559 218.516 310.292 220.557 311.908 222.69C317.05 214.004 324.396 206.832 333.202 201.898C329.962 196.211 326.224 190.822 322.032 185.795Z" fill="white"/>
</g>
<path d="M322.034 185.795C322.034 185.795 338.124 204.249 342.133 224.253C346.142 244.257 345.123 257.941 339.551 263.581C333.979 269.221 327.742 267.807 323.909 263.418C320.077 259.028 323.909 242.028 323.909 242.028C323.909 242.028 316.625 226.767 306.787 216.521C296.948 206.274 295.086 204.766 295.086 204.766C295.086 204.766 308.472 186.107 322.034 185.795Z" stroke="#263238" stroke-width="1.11" stroke-linecap="round" stroke-linejoin="round"/>
<path d="M339.555 263.581C340.773 259.012 341.114 254.253 340.56 249.557" stroke="#263238" stroke-width="1.11" stroke-linecap="round" stroke-linejoin="round"/>
<path d="M330.664 266.489C330.664 266.489 333.477 260.442 332.852 250.644" stroke="#263238" stroke-width="1.11" stroke-linecap="round" stroke-linejoin="round"/>
<path d="M321.209 222.228C320.869 218.681 326.944 211.098 336.049 207.171C337.623 210.338 338.985 213.607 340.126 216.956C336.542 217.955 333.113 219.441 329.933 221.372C325.177 224.566 321.617 226.224 321.209 222.228Z" fill="#60E5AE" stroke="#263238" stroke-width="1.11" stroke-linecap="round" stroke-linejoin="round"/>
<path d="M322.972 186.923C325.472 190.007 327.804 193.223 329.958 196.558C327.176 197.588 324.547 198.991 322.144 200.73C312.318 207.823 310.361 208.693 312.862 199.615C314.425 193.962 318.882 189.722 322.972 186.923Z" fill="#60E5AE" stroke="#263238" stroke-width="1.11" stroke-linecap="round" stroke-linejoin="round"/>
<path d="M209.475 178.389C209.475 178.389 205.289 192.508 206.865 198.256C208.442 204.005 215.753 198.786 223.078 205.051C230.403 211.316 237.184 222.622 264.92 224.715C292.657 226.808 309.399 211.846 315.202 203.475C321.004 195.104 320.434 185.17 330.368 184.653C340.302 184.137 331.944 164.772 328.805 161.633C328.805 161.633 348.156 132.864 348.156 125.539C348.156 118.215 329.851 119.777 307.388 126.586C307.388 126.586 290.645 117.685 260.3 122.917C229.954 128.148 221.066 137.05 221.066 137.05C221.066 137.05 183.396 141.751 180.787 146.453C178.178 151.155 185.937 171.064 209.475 178.389Z" fill="white"/>
<mask id="mask5_17993_1389" style="mask-type:luminance" maskUnits="userSpaceOnUse" x="180" y="120" width="169" height="105">
<path d="M209.475 178.389C209.475 178.389 205.289 192.508 206.865 198.256C208.442 204.005 215.753 198.786 223.078 205.051C230.403 211.316 237.184 222.622 264.92 224.715C292.657 226.808 309.399 211.846 315.202 203.475C321.004 195.104 320.434 185.17 330.368 184.653C340.302 184.137 331.944 164.772 328.805 161.633C328.805 161.633 348.156 132.864 348.156 125.539C348.156 118.215 329.851 119.777 307.388 126.586C307.388 126.586 290.645 117.685 260.3 122.917C229.954 128.148 221.066 137.05 221.066 137.05C221.066 137.05 183.396 141.751 180.787 146.453C178.178 151.155 185.937 171.064 209.475 178.389Z" fill="white"/>
</mask>
<g mask="url(#mask5_17993_1389)">
<path d="M330.33 184.667C340.278 184.137 331.907 164.786 328.767 161.646C328.767 161.646 332.45 156.211 336.595 149.416C325.356 143.545 314.322 140.284 311.386 143.586C305.067 150.68 308.505 164.269 311.386 177.56C314.267 190.85 302.757 196.517 294.712 208.014C286.667 219.51 275.184 206.858 275.184 206.858C271.107 223.533 253.916 212.607 253.916 212.607C240.707 208.53 218.297 195.375 222.891 186.175C227.484 176.975 228.639 168.36 220.594 160.899C212.549 153.438 180.464 147.228 180.464 147.228C178.779 152.895 186.919 171.458 209.491 178.484C209.491 178.484 205.306 192.603 206.882 198.351C208.459 204.1 215.77 198.881 223.095 205.146C230.419 211.411 237.201 222.717 264.937 224.81C292.673 226.903 309.416 211.941 315.219 203.57C321.021 195.199 320.383 185.183 330.33 184.667Z" fill="#60E5AE"/>
<path opacity="0.5" d="M330.33 184.667C340.278 184.137 331.907 164.786 328.767 161.646C328.767 161.646 332.45 156.211 336.595 149.416C325.356 143.545 314.322 140.284 311.386 143.586C305.067 150.68 308.505 164.269 311.386 177.56C314.267 190.85 302.757 196.517 294.712 208.014C286.667 219.51 275.184 206.858 275.184 206.858C271.107 223.533 253.916 212.607 253.916 212.607C240.707 208.53 218.297 195.375 222.891 186.175C227.484 176.975 228.639 168.36 220.594 160.899C212.549 153.438 180.464 147.228 180.464 147.228C178.779 152.895 186.919 171.458 209.491 178.484C209.491 178.484 205.306 192.603 206.882 198.351C208.459 204.1 215.77 198.881 223.095 205.146C230.419 211.411 237.201 222.717 264.937 224.81C292.673 226.903 309.416 211.941 315.219 203.57C321.021 195.199 320.383 185.183 330.33 184.667Z" fill="white"/>
<path d="M289.409 187.82C289.803 191.136 282.438 194.71 272.993 195.81C263.548 196.911 255.558 195.117 255.164 191.733C254.769 188.35 262.135 184.857 271.593 183.756C281.052 182.656 289.029 184.518 289.409 187.82Z" fill="#60E5AE"/>
<path opacity="0.5" d="M289.409 187.82C289.803 191.136 282.438 194.71 272.993 195.81C263.548 196.911 255.558 195.117 255.164 191.733C254.769 188.35 262.135 184.857 271.593 183.756C281.052 182.656 289.029 184.518 289.409 187.82Z" fill="white"/>
</g>
<path d="M209.475 178.389C209.475 178.389 205.289 192.508 206.865 198.256C208.442 204.005 215.753 198.786 223.078 205.051C230.403 211.316 237.184 222.622 264.92 224.715C292.657 226.808 309.399 211.846 315.202 203.475C321.004 195.104 320.434 185.17 330.368 184.653C340.302 184.137 331.944 164.772 328.805 161.633C328.805 161.633 348.156 132.864 348.156 125.539C348.156 118.215 329.851 119.777 307.388 126.586C307.388 126.586 290.645 117.685 260.3 122.917C229.954 128.148 221.066 137.05 221.066 137.05C221.066 137.05 183.396 141.751 180.787 146.453C178.178 151.155 185.937 171.064 209.475 178.389Z" stroke="#263238" stroke-width="1.11" stroke-miterlimit="10"/>
<path d="M317.675 136.533C304.086 145.665 308.883 154.798 314.957 159.866C318.667 162.965 324.647 162.584 328.737 161.715C328.737 161.715 348.089 132.946 348.089 125.621C348.102 125.553 331.197 127.333 317.675 136.533Z" fill="#60E5AE" stroke="#263238" stroke-width="1.11" stroke-miterlimit="10"/>
<path d="M180.448 147.133C178.763 152.8 186.903 171.363 209.476 178.389C209.476 178.389 226.707 176.704 220.959 162.842C215.591 149.905 188.453 146.685 180.448 147.133Z" fill="#60E5AE" stroke="#263238" stroke-width="1.11" stroke-miterlimit="10"/>
<path d="M260.215 122.944C258.435 123.256 256.722 123.582 255.078 123.909C257.796 137.634 262.267 160.491 266.262 160.491C270.258 160.491 273.315 135.432 274.62 121.395C269.79 121.598 264.978 122.115 260.215 122.944Z" fill="#60E5AE" stroke="#263238" stroke-width="1.11" stroke-miterlimit="10"/>
<path d="M244.628 156.415C248.787 153.969 248.162 135.582 247.496 125.607C243.204 126.674 238.979 127.994 234.844 129.562C236.352 138.898 240.184 159.024 244.628 156.415Z" fill="#60E5AE" stroke="#263238" stroke-width="1.11" stroke-miterlimit="10"/>
<path d="M284.871 147.962C289.124 149.457 291.516 134.169 292.861 122.4C288.566 121.7 284.222 121.332 279.87 121.299C279.734 130.961 280.264 146.345 284.871 147.962Z" fill="#60E5AE" stroke="#263238" stroke-width="1.11" stroke-miterlimit="10"/>
<path d="M279.171 200.879C275.202 199.836 270.984 200.357 267.389 202.333C267.231 202.424 267.097 202.551 266.997 202.703C266.897 202.855 266.834 203.029 266.813 203.21C266.791 203.391 266.813 203.574 266.875 203.745C266.937 203.916 267.039 204.07 267.171 204.195L274.387 210.99C274.523 211.117 274.686 211.209 274.864 211.26C275.042 211.311 275.23 211.319 275.412 211.284C275.594 211.248 275.765 211.169 275.91 211.054C276.056 210.939 276.172 210.792 276.249 210.623L279.945 202.469C280.011 202.315 280.044 202.148 280.04 201.981C280.035 201.813 279.995 201.648 279.922 201.497C279.848 201.346 279.743 201.213 279.614 201.106C279.484 201 279.333 200.922 279.171 200.879Z" fill="#60E5AE" stroke="#263238" stroke-width="1.11" stroke-linecap="round" stroke-linejoin="round"/>
<path d="M262.02 189.532C263.013 192.155 262.618 194.737 261.137 195.294C259.656 195.851 257.645 194.193 256.639 191.584C255.633 188.975 256.041 186.379 257.522 185.822C259.004 185.265 261.015 186.923 262.02 189.532Z" fill="#263238"/>
<path d="M281.699 187.67C281.182 190.388 282.025 192.902 283.588 193.188C285.151 193.473 286.836 191.489 287.352 188.73C287.868 185.972 287.026 183.512 285.463 183.213C283.9 182.914 282.215 184.925 281.699 187.67Z" fill="#263238"/>
<path d="M276.254 210.609C276.254 210.609 266.605 223.71 257.812 210.528" stroke="#263238" stroke-width="1.11" stroke-linecap="round" stroke-linejoin="round"/>
<path d="M274.391 210.976C274.391 210.976 280.805 217.621 287.573 213.898C294.34 210.174 290.29 204.385 290.29 204.385" stroke="#263238" stroke-width="1.11" stroke-linecap="round" stroke-linejoin="round"/>
<path d="M244.969 179.068C244.969 179.068 247.333 170.616 258.49 172.64" stroke="#263238" stroke-width="3.34" stroke-linecap="round" stroke-linejoin="round"/>
<path d="M278.781 171.295C278.781 171.295 287.234 166.226 295.007 174.339" stroke="#263238" stroke-width="3.34" stroke-linecap="round" stroke-linejoin="round"/>
<path d="M238.523 201.735L246.65 203.76" stroke="#263238" stroke-width="1.11" stroke-miterlimit="10" stroke-linecap="round"/>
<path d="M245.631 206.804L238.523 208.163" stroke="#263238" stroke-width="1.11" stroke-miterlimit="10" stroke-linecap="round"/>
<path d="M246.997 210.528L241.914 213.232" stroke="#263238" stroke-width="1.11" stroke-miterlimit="10" stroke-linecap="round"/>
<path d="M298.391 198.012L305.498 196.327" stroke="#263238" stroke-width="1.11" stroke-miterlimit="10" stroke-linecap="round"/>
<path d="M299.75 201.396H304.479" stroke="#263238" stroke-width="1.11" stroke-miterlimit="10" stroke-linecap="round"/>
<path d="M300.75 204.779L307.178 206.464" stroke="#263238" stroke-width="1.11" stroke-miterlimit="10" stroke-linecap="round"/>
</g>
<defs>
<clipPath id="clip0_17993_1389">
<rect width="584" height="520" fill="white"/>
</clipPath>
</defs>
</svg>
